<svg xmlns="http://www.w3.org/2000/svg" xmlns:xlink="http://www.w3.org/1999/xlink" width="500" zoomAndPan="magnify" viewBox="0 0 375 374.999991" height="500" preserveAspectRatio="xMidYMid meet" version="1.0"><defs><g/><clipPath id="id1"><path d="M 34.722656 173.78125 L 339.972656 173.78125 L 339.972656 197.78125 L 34.722656 197.78125 Z M 34.722656 173.78125 " clip-rule="nonzero"/></clipPath><clipPath id="id2"><path d="M 113 81.445312 L 262 81.445312 L 262 122.695312 L 113 122.695312 Z M 113 81.445312 " clip-rule="nonzero"/></clipPath></defs><g fill="#ffffff" fill-opacity="1"><g transform="translate(81.21457, 237.689356)"><g><path d="M 98.4375 -110.015625 L 102.4375 -110.015625 L 103.734375 -77.15625 L 98.4375 -77.15625 C 96.34375 -85.53125 92.296875 -92.097656 86.296875 -96.859375 C 80.296875 -101.628906 73.054688 -104.015625 64.578125 -104.015625 C 58.765625 -104.015625 53.570312 -102.867188 49 -100.578125 C 44.425781 -98.296875 40.566406 -95.007812 37.421875 -90.71875 C 34.285156 -86.4375 31.882812 -81.195312 30.21875 -75 C 28.550781 -68.8125 27.71875 -61.8125 27.71875 -54 C 27.71875 -38.664062 30.90625 -26.878906 37.28125 -18.640625 C 43.664062 -10.398438 52.910156 -6.28125 65.015625 -6.28125 C 83.390625 -6.28125 95.195312 -16.046875 100.4375 -35.578125 L 106.296875 -35.578125 L 106.296875 0 L 101.296875 0 L 98.015625 -11.28125 C 88.015625 -2.8125 75.914062 1.421875 61.71875 1.421875 C 53.625 1.421875 46.3125 0.140625 39.78125 -2.421875 C 33.257812 -4.992188 27.6875 -8.640625 23.0625 -13.359375 C 18.445312 -18.078125 14.878906 -23.816406 12.359375 -30.578125 C 9.835938 -37.335938 8.578125 -44.863281 8.578125 -53.15625 C 8.578125 -61.820312 9.910156 -69.722656 12.578125 -76.859375 C 15.242188 -84.003906 18.976562 -90.148438 23.78125 -95.296875 C 28.59375 -100.441406 34.359375 -104.414062 41.078125 -107.21875 C 47.796875 -110.03125 55.203125 -111.4375 63.296875 -111.4375 C 69.003906 -111.4375 74.382812 -110.625 79.4375 -109 C 84.488281 -107.382812 89.96875 -104.769531 95.875 -101.15625 Z M 98.4375 -110.015625 "/></g></g></g><g fill="#ffffff" fill-opacity="1"><g transform="translate(179.21815, 237.689356)"><g><path d="M 98.4375 -110.015625 L 102.4375 -110.015625 L 103.734375 -77.15625 L 98.4375 -77.15625 C 96.34375 -85.53125 92.296875 -92.097656 86.296875 -96.859375 C 80.296875 -101.628906 73.054688 -104.015625 64.578125 -104.015625 C 58.765625 -104.015625 53.570312 -102.867188 49 -100.578125 C 44.425781 -98.296875 40.566406 -95.007812 37.421875 -90.71875 C 34.285156 -86.4375 31.882812 -81.195312 30.21875 -75 C 28.550781 -68.8125 27.71875 -61.8125 27.71875 -54 C 27.71875 -38.664062 30.90625 -26.878906 37.28125 -18.640625 C 43.664062 -10.398438 52.910156 -6.28125 65.015625 -6.28125 C 83.390625 -6.28125 95.195312 -16.046875 100.4375 -35.578125 L 106.296875 -35.578125 L 106.296875 0 L 101.296875 0 L 98.015625 -11.28125 C 88.015625 -2.8125 75.914062 1.421875 61.71875 1.421875 C 53.625 1.421875 46.3125 0.140625 39.78125 -2.421875 C 33.257812 -4.992188 27.6875 -8.640625 23.0625 -13.359375 C 18.445312 -18.078125 14.878906 -23.816406 12.359375 -30.578125 C 9.835938 -37.335938 8.578125 -44.863281 8.578125 -53.15625 C 8.578125 -61.820312 9.910156 -69.722656 12.578125 -76.859375 C 15.242188 -84.003906 18.976562 -90.148438 23.78125 -95.296875 C 28.59375 -100.441406 34.359375 -104.414062 41.078125 -107.21875 C 47.796875 -110.03125 55.203125 -111.4375 63.296875 -111.4375 C 69.003906 -111.4375 74.382812 -110.625 79.4375 -109 C 84.488281 -107.382812 89.96875 -104.769531 95.875 -101.15625 Z M 98.4375 -110.015625 "/></g></g></g><g clip-path="url(#id1)"><path fill="#f1f0ed" d="M 34.761719 173.78125 L 339.9375 173.78125 L 339.9375 197.78125 L 34.761719 197.78125 L 34.761719 173.78125 " fill-opacity="1" fill-rule="nonzero"/></g><g clip-path="url(#id2)"><path fill="#000000" d="M 250.304688 114.734375 L 250.304688 90.84375 L 226.195312 90.84375 L 226.195312 102.015625 L 187.445312 81.445312 L 113.464844 120.484375 L 114.566406 122.585938 L 187.445312 84.097656 L 260.433594 122.695312 L 261.535156 120.59375 Z M 228.617188 93.277344 L 247.992188 93.277344 L 247.992188 113.515625 L 228.617188 103.230469 Z M 228.617188 93.277344 " fill-opacity="1" fill-rule="nonzero"/></g><g fill="#000000" fill-opacity="1"><g transform="translate(80.432775, 192.374987)"><g><path d="M 3.660156 -4.453125 C 4.882812 -4.160156 5.71875 -3.839844 6.164062 -3.476562 C 6.46875 -3.226562 6.621094 -2.90625 6.621094 -2.519531 C 6.621094 -2.128906 6.539062 -1.808594 6.371094 -1.585938 C 5.953125 -1 5.203125 -0.710938 4.144531 -0.710938 C 2.671875 -0.710938 1.835938 -1.210938 1.65625 -2.210938 L 0.515625 -2.210938 C 0.847656 -0.613281 2.058594 0.179688 4.144531 0.179688 C 5.078125 0.179688 5.855469 -0.015625 6.484375 -0.429688 C 7.234375 -0.917969 7.625 -1.640625 7.625 -2.585938 C 7.625 -3.367188 7.316406 -3.964844 6.707031 -4.382812 C 6.273438 -4.6875 5.578125 -4.964844 4.617188 -5.21875 C 3.644531 -5.46875 3.019531 -5.675781 2.726562 -5.828125 C 2.085938 -6.148438 1.765625 -6.59375 1.78125 -7.179688 C 1.78125 -7.484375 1.835938 -7.75 1.976562 -7.945312 C 2.335938 -8.488281 2.976562 -8.765625 3.894531 -8.765625 C 5.1875 -8.765625 5.925781 -8.347656 6.121094 -7.539062 L 7.179688 -7.539062 C 6.832031 -8.902344 5.730469 -9.601562 3.894531 -9.601562 C 3.0625 -9.601562 2.324219 -9.378906 1.710938 -8.933594 C 1.085938 -8.488281 0.765625 -7.832031 0.765625 -6.941406 C 0.765625 -5.730469 1.738281 -4.898438 3.660156 -4.453125 Z M 3.660156 -4.453125 "/></g></g></g><g fill="#000000" fill-opacity="1"><g transform="translate(96.473646, 192.374987)"><g><path d="M 6.664062 0 L 6.664062 -0.90625 L 2.015625 -0.90625 L 2.015625 -4.269531 L 6.523438 -4.269531 L 6.523438 -5.1875 L 2.015625 -5.1875 L 2.015625 -8.554688 L 6.664062 -8.554688 L 6.664062 -9.460938 L 1.042969 -9.460938 L 1.042969 0 Z M 6.664062 0 "/></g></g></g><g fill="#000000" fill-opacity="1"><g transform="translate(112.236311, 192.374987)"><g><path d="M 2.015625 -0.972656 L 2.015625 -9.460938 L 1.042969 -9.460938 L 1.042969 0 L 5.398438 0 L 5.398438 -0.972656 Z M 2.015625 -0.972656 "/></g></g></g><g fill="#000000" fill-opacity="1"><g transform="translate(125.968107, 192.374987)"><g><path d="M 2.015625 -0.972656 L 2.015625 -9.460938 L 1.042969 -9.460938 L 1.042969 0 L 5.398438 0 L 5.398438 -0.972656 Z M 2.015625 -0.972656 "/></g></g></g><g fill="#000000" fill-opacity="1"><g transform="translate(139.699904, 192.374987)"><g><path d="M 3.660156 -4.453125 C 4.882812 -4.160156 5.71875 -3.839844 6.164062 -3.476562 C 6.46875 -3.226562 6.621094 -2.90625 6.621094 -2.519531 C 6.621094 -2.128906 6.539062 -1.808594 6.371094 -1.585938 C 5.953125 -1 5.203125 -0.710938 4.144531 -0.710938 C 2.671875 -0.710938 1.835938 -1.210938 1.65625 -2.210938 L 0.515625 -2.210938 C 0.847656 -0.613281 2.058594 0.179688 4.144531 0.179688 C 5.078125 0.179688 5.855469 -0.015625 6.484375 -0.429688 C 7.234375 -0.917969 7.625 -1.640625 7.625 -2.585938 C 7.625 -3.367188 7.316406 -3.964844 6.707031 -4.382812 C 6.273438 -4.6875 5.578125 -4.964844 4.617188 -5.21875 C 3.644531 -5.46875 3.019531 -5.675781 2.726562 -5.828125 C 2.085938 -6.148438 1.765625 -6.59375 1.78125 -7.179688 C 1.78125 -7.484375 1.835938 -7.75 1.976562 -7.945312 C 2.335938 -8.488281 2.976562 -8.765625 3.894531 -8.765625 C 5.1875 -8.765625 5.925781 -8.347656 6.121094 -7.539062 L 7.179688 -7.539062 C 6.832031 -8.902344 5.730469 -9.601562 3.894531 -9.601562 C 3.0625 -9.601562 2.324219 -9.378906 1.710938 -8.933594 C 1.085938 -8.488281 0.765625 -7.832031 0.765625 -6.941406 C 0.765625 -5.730469 1.738281 -4.898438 3.660156 -4.453125 Z M 3.660156 -4.453125 "/></g></g></g><g fill="#000000" fill-opacity="1"><g transform="translate(155.740777, 192.374987)"><g/></g></g><g fill="#000000" fill-opacity="1"><g transform="translate(167.552979, 192.374987)"><g><path d="M 9.726562 -2.894531 L 8.652344 -2.894531 C 8.320312 -2.28125 7.859375 -1.78125 7.277344 -1.417969 C 6.691406 -1.042969 6.039062 -0.863281 5.34375 -0.863281 C 4.300781 -0.863281 3.410156 -1.238281 2.671875 -2.015625 C 1.949219 -2.753906 1.601562 -3.660156 1.601562 -4.714844 C 1.601562 -5.773438 1.949219 -6.679688 2.671875 -7.429688 C 3.003906 -7.777344 3.410156 -8.054688 3.867188 -8.265625 C 4.3125 -8.472656 4.757812 -8.585938 5.203125 -8.585938 C 5.632812 -8.585938 6.011719 -8.527344 6.34375 -8.429688 C 7.359375 -8.125 8.125 -7.511719 8.640625 -6.582031 L 9.710938 -6.582031 C 9.347656 -7.472656 8.777344 -8.195312 7.984375 -8.75 C 7.179688 -9.308594 6.300781 -9.585938 5.34375 -9.585938 C 4.019531 -9.585938 2.90625 -9.097656 1.988281 -8.140625 C 1.558594 -7.695312 1.222656 -7.164062 0.988281 -6.582031 C 0.738281 -5.996094 0.625 -5.371094 0.625 -4.714844 C 0.625 -3.378906 1.070312 -2.253906 1.988281 -1.308594 C 2.90625 -0.332031 4.019531 0.140625 5.34375 0.140625 C 6.300781 0.140625 7.179688 -0.140625 8 -0.695312 C 8.792969 -1.253906 9.363281 -1.976562 9.726562 -2.894531 Z M 9.726562 -2.894531 "/></g></g></g><g fill="#000000" fill-opacity="1"><g transform="translate(185.74992, 192.374987)"><g><path d="M 9.378906 -4.757812 C 9.378906 -3.671875 8.988281 -2.753906 8.234375 -2.003906 C 7.472656 -1.238281 6.554688 -0.863281 5.480469 -0.863281 C 4.410156 -0.863281 3.492188 -1.238281 2.742188 -2.003906 C 1.976562 -2.753906 1.601562 -3.671875 1.601562 -4.757812 C 1.601562 -5.816406 1.976562 -6.734375 2.742188 -7.5 C 3.492188 -8.25 4.410156 -8.640625 5.480469 -8.640625 C 6.554688 -8.640625 7.472656 -8.25 8.234375 -7.5 C 8.988281 -6.734375 9.378906 -5.816406 9.378906 -4.757812 Z M 10.351562 -4.757812 C 10.351562 -5.425781 10.210938 -6.050781 9.960938 -6.648438 C 9.710938 -7.234375 9.363281 -7.75 8.917969 -8.195312 C 8.472656 -8.625 7.957031 -8.972656 7.375 -9.222656 C 6.773438 -9.472656 6.148438 -9.613281 5.480469 -9.613281 C 4.8125 -9.613281 4.171875 -9.472656 3.589844 -9.222656 C 3.003906 -8.972656 2.492188 -8.625 2.046875 -8.195312 C 1.601562 -7.75 1.253906 -7.234375 1 -6.648438 C 0.75 -6.050781 0.625 -5.425781 0.625 -4.757812 C 0.625 -4.089844 0.75 -3.449219 1 -2.867188 C 1.253906 -2.269531 1.601562 -1.753906 2.046875 -1.308594 C 2.492188 -0.863281 3.003906 -0.515625 3.589844 -0.265625 C 4.171875 -0.015625 4.8125 0.109375 5.480469 0.109375 C 6.148438 0.109375 6.773438 -0.015625 7.375 -0.265625 C 7.957031 -0.515625 8.472656 -0.863281 8.917969 -1.308594 C 9.363281 -1.753906 9.710938 -2.269531 9.960938 -2.867188 C 10.210938 -3.449219 10.351562 -4.089844 10.351562 -4.757812 Z M 10.351562 -4.757812 "/></g></g></g><g fill="#000000" fill-opacity="1"><g transform="translate(204.781466, 192.374987)"><g><path d="M 2.015625 -0.972656 L 2.015625 -9.460938 L 1.042969 -9.460938 L 1.042969 0 L 5.398438 0 L 5.398438 -0.972656 Z M 2.015625 -0.972656 "/></g></g></g><g fill="#000000" fill-opacity="1"><g transform="translate(218.513265, 192.374987)"><g><path d="M 7.886719 -3.128906 L 7.886719 -9.460938 L 6.914062 -9.460938 L 6.914062 -2.992188 C 6.914062 -2.601562 6.84375 -2.28125 6.707031 -2.015625 C 6.300781 -1.238281 5.523438 -0.847656 4.367188 -0.847656 C 3.617188 -0.847656 3.019531 -1.015625 2.574219 -1.347656 C 2.058594 -1.726562 1.808594 -2.269531 1.808594 -2.992188 L 1.808594 -9.460938 L 0.835938 -9.460938 L 0.835938 -3.128906 C 0.835938 -2.101562 1.167969 -1.292969 1.835938 -0.710938 C 2.460938 -0.152344 3.3125 0.125 4.367188 0.125 C 5.410156 0.125 6.246094 -0.152344 6.886719 -0.710938 C 7.554688 -1.292969 7.886719 -2.101562 7.886719 -3.128906 Z M 7.886719 -3.128906 "/></g></g></g><g fill="#000000" fill-opacity="1"><g transform="translate(235.291379, 192.374987)"><g><path d="M 9.765625 0 L 10.753906 0 L 8.554688 -10.085938 L 5.453125 -1.988281 L 2.351562 -10.085938 L 0.140625 0 L 1.140625 0 L 2.601562 -6.734375 L 5.453125 0.554688 L 8.292969 -6.734375 Z M 9.765625 0 "/></g></g></g><g fill="#000000" fill-opacity="1"><g transform="translate(254.239463, 192.374987)"><g><path d="M 7.21875 -2.628906 C 7.21875 -3.296875 7.054688 -3.867188 6.734375 -4.3125 C 6.398438 -4.757812 5.953125 -5.0625 5.410156 -5.21875 C 5.730469 -5.355469 6.011719 -5.605469 6.21875 -5.980469 C 6.316406 -6.148438 6.386719 -6.316406 6.441406 -6.496094 C 6.496094 -6.679688 6.523438 -6.929688 6.523438 -7.25 C 6.523438 -7.554688 6.441406 -7.875 6.300781 -8.179688 C 5.886719 -9.027344 4.980469 -9.460938 3.601562 -9.460938 L 1.042969 -9.460938 L 1.042969 0 L 3.9375 0 C 4.898438 0 5.664062 -0.207031 6.246094 -0.652344 C 6.539062 -0.875 6.773438 -1.167969 6.957031 -1.53125 C 7.125 -1.878906 7.21875 -2.238281 7.21875 -2.628906 Z M 5.550781 -7.09375 C 5.550781 -6.582031 5.398438 -6.203125 5.09375 -5.953125 C 4.785156 -5.703125 4.382812 -5.578125 3.882812 -5.578125 L 2.015625 -5.578125 L 2.015625 -8.527344 L 3.601562 -8.527344 C 4.898438 -8.527344 5.550781 -8.042969 5.550781 -7.09375 Z M 6.246094 -2.824219 C 6.246094 -2.253906 6.050781 -1.792969 5.664062 -1.445312 C 5.285156 -1.097656 4.800781 -0.933594 4.214844 -0.933594 L 2.015625 -0.933594 L 2.015625 -4.605469 L 4.367188 -4.605469 C 4.855469 -4.605469 5.285156 -4.4375 5.664062 -4.105469 C 5.828125 -3.949219 5.96875 -3.769531 6.078125 -3.5625 C 6.191406 -3.339844 6.246094 -3.101562 6.246094 -2.824219 Z M 6.246094 -2.824219 "/></g></g></g><g fill="#000000" fill-opacity="1"><g transform="translate(269.793482, 192.374987)"><g><path d="M 7.886719 -3.128906 L 7.886719 -9.460938 L 6.914062 -9.460938 L 6.914062 -2.992188 C 6.914062 -2.601562 6.84375 -2.28125 6.707031 -2.015625 C 6.300781 -1.238281 5.523438 -0.847656 4.367188 -0.847656 C 3.617188 -0.847656 3.019531 -1.015625 2.574219 -1.347656 C 2.058594 -1.726562 1.808594 -2.269531 1.808594 -2.992188 L 1.808594 -9.460938 L 0.835938 -9.460938 L 0.835938 -3.128906 C 0.835938 -2.101562 1.167969 -1.292969 1.835938 -0.710938 C 2.460938 -0.152344 3.3125 0.125 4.367188 0.125 C 5.410156 0.125 6.246094 -0.152344 6.886719 -0.710938 C 7.554688 -1.292969 7.886719 -2.101562 7.886719 -3.128906 Z M 7.886719 -3.128906 "/></g></g></g><g fill="#000000" fill-opacity="1"><g transform="translate(286.571595, 192.374987)"><g><path d="M 3.660156 -4.453125 C 4.882812 -4.160156 5.71875 -3.839844 6.164062 -3.476562 C 6.46875 -3.226562 6.621094 -2.90625 6.621094 -2.519531 C 6.621094 -2.128906 6.539062 -1.808594 6.371094 -1.585938 C 5.953125 -1 5.203125 -0.710938 4.144531 -0.710938 C 2.671875 -0.710938 1.835938 -1.210938 1.65625 -2.210938 L 0.515625 -2.210938 C 0.847656 -0.613281 2.058594 0.179688 4.144531 0.179688 C 5.078125 0.179688 5.855469 -0.015625 6.484375 -0.429688 C 7.234375 -0.917969 7.625 -1.640625 7.625 -2.585938 C 7.625 -3.367188 7.316406 -3.964844 6.707031 -4.382812 C 6.273438 -4.6875 5.578125 -4.964844 4.617188 -5.21875 C 3.644531 -5.46875 3.019531 -5.675781 2.726562 -5.828125 C 2.085938 -6.148438 1.765625 -6.59375 1.78125 -7.179688 C 1.78125 -7.484375 1.835938 -7.75 1.976562 -7.945312 C 2.335938 -8.488281 2.976562 -8.765625 3.894531 -8.765625 C 5.1875 -8.765625 5.925781 -8.347656 6.121094 -7.539062 L 7.179688 -7.539062 C 6.832031 -8.902344 5.730469 -9.601562 3.894531 -9.601562 C 3.0625 -9.601562 2.324219 -9.378906 1.710938 -8.933594 C 1.085938 -8.488281 0.765625 -7.832031 0.765625 -6.941406 C 0.765625 -5.730469 1.738281 -4.898438 3.660156 -4.453125 Z M 3.660156 -4.453125 "/></g></g></g></svg>